<svg id="Layer_1" data-name="Layer 1" xmlns="http://www.w3.org/2000/svg" viewBox="0 0 369.66 90.04"><defs><style>.cls-1{fill:#6e72fc;}.cls-2{fill:#40454c;}</style></defs><g id="SvgjsG1211"><path class="cls-1" d="M446.41,494.67h-56.5a12.55,12.55,0,0,0-12.56,12.55V570a12.56,12.56,0,0,0,12.56,12.56h56.5a6.28,6.28,0,0,0,6.28-6.28V501A6.28,6.28,0,0,0,446.41,494.67Zm-56.5,84.75a9.42,9.42,0,0,1-9.42-9.42V507.22a9.42,9.42,0,0,1,9.42-9.41H393v81.61Zm59.64-3.14a3.15,3.15,0,0,1-3.14,3.14H396.18V497.81h50.23a3.15,3.15,0,0,1,3.14,3.14Z" transform="translate(-377.35 -494.67)"/><path class="cls-1" d="M427.1,522.92a15.38,15.38,0,0,0-2.53.25,6.15,6.15,0,0,1,6.14-5,1.57,1.57,0,1,0,0-3.14,9.34,9.34,0,0,0-9.35,8.14,14.8,14.8,0,0,0-2.73-.29c-13.25,0-18.2,20.2-6.14,29.69a7.92,7.92,0,0,0,4.92,1.7c2.34,0,3.42-1,5.45-1s3.12,1,5.46,1a7.92,7.92,0,0,0,4.92-1.7C445.26,543.14,440.38,522.92,427.1,522.92Zm4.19,27.23a4.73,4.73,0,0,1-3,1c-1.21,0-3.2-1-5.46-1s-4.24,1-5.45,1a4.73,4.73,0,0,1-3-1c-9.74-7.67-6-24.09,4.19-24.09a13,13,0,0,1,3.11.42,4.51,4.51,0,0,0,2.25,0,13,13,0,0,1,3.11-.42C437.28,526.06,441.06,542.46,431.29,550.15Z" transform="translate(-377.35 -494.67)"/></g><g id="SvgjsG1212"><path class="cls-2" d="M508.46,502.66c-.24.64-25.87,55.67-30,68.84-.25.72,1,1.21.48,2.09a2.84,2.84,0,0,1-1.85.32c-1-.24-.88-1.6-.88-1.6.8-4.18,7.47-20,14.38-35.67-1.77,3.13-3.38,5.86-4.58,7.79a1.15,1.15,0,0,1,.08,1c-.32.73-.73.65-1.05.49-.16.16-.32.4-.48.56l-.56.8c-2.81,3.62-5.3,6.75-8,7a.63.63,0,0,1-.41.08,3.4,3.4,0,0,1-3.21-4.66c.64-3.05,3.46-7,6.91-8a5.77,5.77,0,0,1,5,1c5.14-8.19,17.67-31.73,18.4-33.09,2-4.42,3.37-7.39,3.61-8a1.42,1.42,0,0,1,1.53-.32A1,1,0,0,1,508.46,502.66Zm-25.63,42.41c.08-.08.41-.64.49-.72a5,5,0,0,0-3.46-.8c-2.41.48-4.58,4.33-5.14,6.66-.16.81-.08,1.37.08,1.45a1.41,1.41,0,0,0,1,.4c1.69-.24,4.18-3.37,6.35-6.18Zm40.66-1.68c.08,1-1.13.72-1.13.72a40.62,40.62,0,0,1-5.06.08,16.41,16.41,0,0,0-2.33.08,12.79,12.79,0,0,1-1.77,6.27c-1.84,3.21-4.82,6.1-7.71,6.1a4.42,4.42,0,0,1-2.17-.56,4,4,0,0,1-2-2.81c-.8-4.82,7.88-14.3,8.68-15.19,0,0,1-1,1.61-.56a1.18,1.18,0,0,1,.16,1.77c-2.89,3.13-8.6,10.84-8.2,13.57.08.57.32,1.45.81,1.69,2.09,1.13,5.06-2.09,6.74-5.14a10,10,0,0,0,1.53-5.22c-1-.24-1.69-.64-1.93-1.29a2.17,2.17,0,0,1,.81-2.41l.64-.48.72.4a4.76,4.76,0,0,1,1.53,1.53,3,3,0,0,0,1.52.88,25.47,25.47,0,0,0,5.47.08S523.32,542,523.49,543.39ZM550.4,548c.48-1,1.61-.72,1.45-.32-3.78,9-12.37,16.47-14.78,16.47a2.81,2.81,0,0,1-.49-.08,1.73,1.73,0,0,1-1.28-1.93c-.08-2.09,1.52-5.14,3.29-8.59a51.43,51.43,0,0,0,2.65-6.19,5,5,0,0,0,.4-3c-2.25-.64-5.78,5.06-7.63,8.19s-2.73,4.42-4,4.18c-.33,0-1-.24-1.21-1.36-.8-3.78,3.62-11.17,4-12,0,0,.56-1.93,2.41-.65.88.57-.73,1.69-.73,1.69a31.35,31.35,0,0,0-3.29,8.27c.24-.48.56-1,.8-1.36,2.82-4.66,6.67-10.93,10.77-9l.16.08.16.08c2.25,1.93.08,6.43-2.41,11.65a34.05,34.05,0,0,0-3,7.23C540.12,561.7,546.71,555.6,550.4,548Zm31.65-4.57c.09,1-1.12.72-1.12.72a40.62,40.62,0,0,1-5.06.08,16.41,16.41,0,0,0-2.33.08,12.79,12.79,0,0,1-1.77,6.27c-1.85,3.21-4.82,6.1-7.71,6.1a4.39,4.39,0,0,1-2.17-.56,4,4,0,0,1-2-2.81c-.8-4.82,7.88-14.3,8.68-15.19,0,0,1-1,1.61-.56a1.18,1.18,0,0,1,.16,1.77c-2.9,3.13-8.6,10.84-8.2,13.57.08.57.32,1.45.81,1.69,2.08,1.13,5.06-2.09,6.74-5.14a10,10,0,0,0,1.53-5.22c-1-.24-1.69-.64-1.93-1.29a2.17,2.17,0,0,1,.81-2.41l.64-.48.72.4a4.76,4.76,0,0,1,1.53,1.53,3,3,0,0,0,1.52.88,25.47,25.47,0,0,0,5.47.08S581.89,542,582.05,543.39Zm81.71-31.74c1.36.57-.33,1.93-.89,1.69h-.08c-8.59-3.69-33.18-4.34-52.62-3.61-9,16.46-21.36,39.36-20.8,52.45.08.57.24,1.13.56,1.29,3.05,1.52,8.76-10.12,10.85-13.34,0,0,.72-1.92,1.76-1,.73.64-.24,1.2-.24,1.2-1,1.21-8.43,15.11-11.89,14.87a3.23,3.23,0,0,1-3.29-3c-.48-13.57,11.17-35.26,20.08-52.21-13.33.56-23.94,1.85-24.18,1.93,0,0-1.28-.57-1.28-1.45,0-1.2,1.52-1.61,1.52-1.61,1.13,0,12-.72,25.39-1,2.09-4,3.21-5.78,3.45-6.27a2.23,2.23,0,0,1,2.41-.72c1,.48.65,1.85.65,1.85a28,28,0,0,0-3.46,5.06c19.2-.4,43.14.08,52.06,3.93ZM634.6,545.23c.72.65-.24,1.21-.24,1.21-1.05,1.2-10.28,10.52-15.67,10.52-.64,0-1.2.24-1.76,0a1.73,1.73,0,0,1-.24-3.13,8.22,8.22,0,0,0,2.49-1.13c2.73-1.84,7.63-7.71,7.47-9.39,0-.17,0-.73-1.69-.89-1-.08-6.43,3.78-13.82,18.08-4.5,8.67-8.51,18.31-10.2,22.41l-.24.64s-.88,1.37-1.77,1.13c-1-.41-.48-1.85-.48-1.85,1-4.18,21.29-50.53,22.17-52.46,0,0,.81-1.52,1.85-1s.24,1.93.24,1.93c-2.17,5.06-5,11.48-7.87,18.15,4.09-5.94,8.59-9.4,10.36-9.32,3.21.32,3.7,2.25,3.78,3,.24,3.14-5.79,9.81-10,12.22,3.29-.25,11.24-6,13.81-9.08,0,0,.73-2,1.77-1ZM662.32,549s.64-.32,1,0a.79.79,0,0,1,0,.88c-2.09,2.49-8,7.23-11.24,7.23a2.18,2.18,0,0,1-1.93-.8c-.73-.8-1.13-2.33.88-7.39-6,7-8,6.34-8.67,6.18a2.46,2.46,0,0,1-1.53-2.33v-.08c-.16-3.37,8.67-12.69,10.36-12.53,0,0,1.21.32,1.13.89a1.39,1.39,0,0,1-1.45,1.36c-1.53-.72-7.87,7.55-7.71,10.2v.24c1-.24,3.77-2.41,8.19-8,1.29-1.68,2.33-2.89,2.89-3.61.73-.81,1.37-1.61,2.25-.89a1.14,1.14,0,0,1,.24,1.61c-3.05,5.78-5.22,11.57-4.82,12.77s2.41.57,5.15-1.28a32.48,32.48,0,0,0,5.3-4.5Zm31.49-1c.48-1,1.61-.72,1.45-.32-3.78,9-12.37,16.47-14.78,16.47A3.23,3.23,0,0,1,680,564a1.73,1.73,0,0,1-1.28-1.93c-.08-2.09,1.53-5.14,3.29-8.59a51.43,51.43,0,0,0,2.65-6.19,5,5,0,0,0,.41-3c-2.25-.64-5.79,5.06-7.64,8.19s-2.73,4.42-4,4.18c-.32,0-1-.24-1.21-1.36-.8-3.78,3.62-11.17,4-12,0,0,.56-1.93,2.41-.65.88.57-.72,1.69-.72,1.69a31,31,0,0,0-3.3,8.27c.24-.48.56-1,.81-1.36,2.81-4.66,6.66-10.93,10.76-9l.16.08.16.08c2.25,1.93.08,6.43-2.41,11.65a34.59,34.59,0,0,0-3,7.23C683.53,561.7,690.12,555.6,693.81,548ZM705,556.4a1.68,1.68,0,0,1-1.69-1.13c-1.2-3,5.15-12.85,6-14.94,0,0,.88-2.17,2.33-2a2.06,2.06,0,0,1,1.61,2.66c-.25.64-1.77,1.12-1.93,1.36-2.17,4.9-6.11,9.72-6,11.73,2.41,1.61,10.29-5.86,13.1-8.52.24-.16.56-1.12,1.2-.88.81.32.24,1.05-.08,1.37-2.65,2.81-10.2,10.44-14.38,10.36Zm10-22.89c0,.8,0,1.52-.72,1.52a1.43,1.43,0,0,1-1.2-1.52,1.38,1.38,0,0,1,1.2-1.53C715,532,715.34,532.7,715,533.51Zm31.74,11.72c.72.65-.32,1.21-.32,1.21-1,1.2-10.21,10.52-15.59,10.52a3.72,3.72,0,0,1-1.68-.4c-.81-.4-2.09-1.53-1.85-4.34.4-4,3.93-10,7.63-11.24,1.61-.57,3-.49,3.86.32,1.6,1.36.16,3.85.08,4.17a1.38,1.38,0,0,1-1.29.73c-.8,0-1.37-1-1.37-1h0c.17-.64,1.45-1.84,1.13-2.17s-.88-.16-1.69.08c-2.49.89-5.7,5.87-6,9.32-.08.73,0,2.41.64,2.73,2.33,1.29,11.89-5.54,14.62-8.91,0,0,.8-1.93,1.85-1Z" transform="translate(-377.35 -494.67)"/></g></svg>